{
.appVersion = "3315";
.storedFileType = org.unifiedfontobject.ufo;
.formatVersion = 3;
DisplayStrings = (
"੦੦੧੦੦੨੦੦੩੦੦੪੦੦੫੦੦੬੦੦𑊑 ੭੦੦੪੦੦੧੦੦੮੦੦੯"
);
customParameters = (
{
name = glyphOrder;
value = (
.notdef,
CR,
NULL,
zeroguru,
oneguru,
twoguru,
threeguru,
fourguru,
fiveguru,
sixguru,
sevenguru,
eightguru,
nineguru,
space,
u11280,
u11281,
u11282,
u11283,
u11284,
u11285,
u11286,
u11288,
u1128A,
u1128B,
u1128C,
u1128D,
u1128F,
u11290,
u11291,
u11292,
u11293,
u11294,
u11295,
u11296,
u11297,
u11298,
u11299,
u1129A,
u1129B,
u1129C,
u1129D,
u1129F,
u112A0,
u112A1,
u112A2,
u112A3,
u112A4,
u112A5,
u112A6,
u112A7,
u112A8,
u112A9,
uni00A0
);
},
{
name = descriptions;
value = "Designed by Monotype design team.";
},
{
name = licenses;
value = "This Font Software is licensed under the SIL Open Font License, Version 1.1. This license is available with a FAQ at: https://scripts.sil.org/OFL";
},
{
name = licenseURL;
value = "https://scripts.sil.org/OFL";
},
{
name = versionString;
value = "Version 2.002";
},
{
name = codePageRanges;
value = (
"1252"
);
},
{
name = fsType;
value = (
);
},
{
name = unicodeRanges;
value = (
0,
1,
17,
57
);
},
{
name = vendorID;
value = GOOG;
},
{
name = trademarks;
value = "Noto is a trademark of Google Inc.";
}
);
date = "2018-02-05 23:11:58 +0000";
familyName = "Noto Sans Multani";
fontMaster = (
{
customParameters = (
{
name = typoAscender;
value = 1069;
},
{
name = typoDescender;
value = -293;
},
{
name = typoLineGap;
value = 0;
},
{
name = hheaAscender;
value = 1069;
},
{
name = hheaDescender;
value = -293;
},
{
name = hheaLineGap;
value = 0;
},
{
name = winAscent;
value = 1069;
},
{
name = winDescent;
value = 293;
},
{
name = underlineThickness;
value = 50;
},
{
name = underlinePosition;
value = -100;
}
);
id = master01;
metricValues = (
{
over = 15;
pos = 720;
},
{
over = 15;
pos = 630;
},
{
over = 15;
pos = 510;
},
{
over = -15;
},
{
over = -15;
pos = -240;
},
{
}
);
name = Regular;
stemValues = (
88,
80
);
}
);
glyphs = (
{
glyphname = .notdef;
layers = (
{
.lastUpdate = 745416042.965;
layerId = master01;
shapes = (
{
closed = 1;
nodes = (
(505,0,l),
(505,714,l),
(94,714,l),
(94,0,l)
);
},
{
closed = 1;
nodes = (
(145,663,l),
(454,663,l),
(454,51,l),
(145,51,l)
);
}
);
width = 600;
}
);
},
{
glyphname = zeroguru;
lastChange = "2024-08-15 12:03:03 +0000";
layers = (
{
.lastUpdate = 745416042.965;
layerId = master01;
shapes = (
{
closed = 1;
nodes = (
(420,78,o),
(513,171,o),
(513,315,cs),
(513,459,o),
(418,553,o),
(275,553,cs),
(137,553,o),
(39,460,o),
(39,316,cs),
(39,172,o),
(131,78,o),
(276,78,cs)
);
},
{
closed = 1;
nodes = (
(178,151,o),
(121,214,o),
(121,313,cs),
(121,416,o),
(180,480,o),
(277,480,cs),
(372,480,o),
(431,417,o),
(431,317,cs),
(431,213,o),
(373,151,o),
(273,151,cs)
);
}
);
width = 551;
}
);
note = zeroguru;
unicode = 2662;
},
{
glyphname = oneguru;
layers = (
{
.lastUpdate = 745416042.965;
layerId = master01;
shapes = (
{
closed = 1;
nodes = (
(510,64,l),
(449,64,o),
(436,83,o),
(436,156,cs),
(436,446,ls),
(436,489,o),
(431,521,o),
(420,544,cs),
(399,589,o),
(339,632,o),
(247,632,cs),
(134,632,o),
(60,560,o),
(60,464,cs),
(60,361,o),
(129,298,o),
(236,298,cs),
(281,298,o),
(321,308,o),
(355,328,c),
(355,146,ls),
(355,41,o),
(401,-9,o),
(500,-9,c)
);
},
{
closed = 1;
nodes = (
(176,370,o),
(141,405,o),
(141,464,cs),
(141,524,o),
(178,560,o),
(243,560,cs),
(316,560,o),
(355,526,o),
(355,454,cs),
(355,411,l),
(323,382,o),
(285,370,o),
(236,370,cs)
);
}
);
width = 551;
}
);
note = oneguru;
unicode = 2663;
},
{
glyphname = twoguru;
layers = (
{
.lastUpdate = 745416042.965;
layerId = master01;
shapes = (
{
closed = 1;
nodes = (
(501,35,l),
(458,80,o),
(402,127,o),
(333,174,c),
(426,215,o),
(479,299,o),
(479,404,cs),
(479,547,o),
(389,632,o),
(234,632,cs),
(166,632,o),
(102,618,o),
(43,590,c),
(71,525,l),
(120,548,o),
(172,559,o),
(228,559,cs),
(337,559,o),
(397,503,o),
(397,402,cs),
(397,319,o),
(351,256,o),
(267,229,c),
(226,253,o),
(184,265,o),
(143,265,cs),
(92,265,o),
(65,246,o),
(65,214,cs),
(65,170,o),
(111,148,o),
(200,148,cs),
(214,148,o),
(226,149,o),
(236,150,c),
(306,106,o),
(375,50,o),
(443,-18,c)
);
}
);
width = 551;
}
);
note = twoguru;
unicode = 2664;
},
{
glyphname = threeguru;
lastChange = "2024-08-14 15:44:48 +0000";
layers = (
{
.lastUpdate = 745416042.965;
guides = (
{
pos = (327,632);
}
);
layerId = master01;
shapes = (
{
closed = 1;
nodes = (
(483,-14,l),
(442,26,o),
(398,62,o),
(351,93,c),
(440,118,o),
(485,167,o),
(485,236,cs),
(485,289,o),
(454,332,o),
(393,361,c),
(450,393,o),
(481,437,o),
(481,485,cs),
(481,577,o),
(399,632,o),
(254,632,cs),
(180,632,o),
(110,618,o),
(45,590,c),
(73,525,l),
(126,548,o),
(184,559,o),
(249,559,cs),
(350,559,o),
(399,534,o),
(399,481,cs),
(399,440,o),
(366,410,o),
(310,395,c),
(249,418,o),
(215,421,o),
(176,421,cs),
(127,421,o),
(96,404,o),
(96,371,cs),
(96,334,o),
(131,314,o),
(202,314,cs),
(235,314,o),
(270,318,o),
(305,327,c),
(368,312,o),
(404,280,o),
(404,237,cs),
(404,188,o),
(355,155,o),
(271,147,c),
(225,170,o),
(179,182,o),
(134,182,cs),
(85,182,o),
(57,164,o),
(57,135,cs),
(57,114,o),
(68,99,o),
(91,89,cs),
(113,79,o),
(146,74,o),
(190,74,cs),
(212,74,o),
(230,75,o),
(245,76,c),
(300,45,o),
(360,-3,o),
(425,-66,c)
);
}
);
width = 551;
}
);
note = threeguru;
unicode = 2665;
},
{
glyphname = fourguru;
layers = (
{
.lastUpdate = 745416042.965;
layerId = master01;
shapes = (
{
closed = 1;
nodes = (
(407,-8,o),
(486,58,o),
(486,165,cs),
(486,224,o),
(459,270,o),
(404,298,c),
(469,329,o),
(506,385,o),
(506,454,cs),
(506,537,o),
(445,610,o),
(332,627,c),
(322,558,l),
(391,543,o),
(426,508,o),
(426,449,cs),
(426,376,o),
(375,338,o),
(272,338,cs),
(176,338,o),
(125,378,o),
(125,449,cs),
(125,506,o),
(161,546,o),
(229,558,c),
(219,627,l),
(108,611,o),
(45,537,o),
(45,454,cs),
(45,385,o),
(80,329,o),
(147,298,c),
(94,271,o),
(64,226,o),
(64,167,cs),
(64,58,o),
(144,-8,o),
(276,-8,cs)
);
},
{
closed = 1;
nodes = (
(191,64,o),
(146,101,o),
(146,165,cs),
(146,228,o),
(193,266,o),
(278,266,cs),
(355,266,o),
(404,228,o),
(404,167,cs),
(404,100,o),
(359,64,o),
(274,64,cs)
);
}
);
width = 551;
}
);
note = fourguru;
unicode = 2666;
},
{
glyphname = fiveguru;
layers = (
{
.lastUpdate = 745416042.965;
layerId = master01;
shapes = (
{
closed = 1;
nodes = (
(470,0,l),
(470,622,l),
(389,622,l),
(389,261,l),
(352,240,o),
(314,230,o),
(275,230,cs),
(211,230,o),
(168,263,o),
(128,343,c),
(167,380,o),
(183,422,o),
(183,477,cs),
(183,525,o),
(168,577,o),
(139,632,c),
(64,604,l),
(93,552,o),
(104,515,o),
(104,474,cs),
(104,425,o),
(83,389,o),
(34,349,c),
(86,221,o),
(166,157,o),
(273,157,cs),
(315,157,o),
(354,164,o),
(389,179,c),
(389,0,l)
);
}
);
width = 551;
}
);
note = fiveguru;
unicode = 2667;
},
{
color = 4;
glyphname = sixguru;
lastChange = "2024-08-15 12:15:03 +0000";
layers = (
{
.lastUpdate = 745416898.942;
background = {
guides = (
{
angle = 294.0442;
pos = (494,65);
}
);
shapes = (
{
closed = 1;
nodes = (
(160,630,o),
(71,557,o),
(71,462,cs),
(71,412,o),
(96,353,o),
(154,324,c),
(98,287,o),
(67,226,o),
(67,170,cs),
(67,69,o),
(151,-9,o),
(298,-9,cs),
(374,-9,o),
(444,5,o),
(508,32,c),
(479,97,l),
(429,74,o),
(372,63,o),
(318,63,cs),
(202,63,o),
(153,112,o),
(153,173,cs),
(153,222,o),
(185,272,o),
(237,289,c),
(284,273,o),
(329,257,o),
(371,257,cs),
(420,257,o),
(451,282,o),
(451,315,cs),
(451,352,o),
(415,372,o),
(346,372,cs),
(309,372,o),
(274,368,o),
(239,359,c),
(183,373,o),
(153,415,o),
(153,458,cs),
(153,511,o),
(198,559,o),
(306,559,cs),
(352,559,o),
(424,550,o),
(480,525,c),
(508,590,l),
(443,618,o),
(373,633,o),
(299,632,cs)
);
}
);
};
layerId = master01;
shapes = (
{
closed = 1;
nodes = (
(161,629,o),
(71,559,o),
(71,462,cs),
(71,412,o),
(96,353,o),
(154,324,c),
(98,287,o),
(67,227,o),
(67,167,cs),
(67,69,o),
(150,-9,o),
(305,-9,cs),
(371,-9,o),
(444,5,o),
(508,32,c),
(479,97,l),
(429,74,o),
(372,63,o),
(318,63,cs),
(202,63,o),
(153,112,o),
(153,173,cs),
(153,222,o),
(185,272,o),
(237,289,c),
(284,273,o),
(329,257,o),
(371,257,cs),
(420,257,o),
(451,282,o),
(451,315,cs),
(451,352,o),
(415,372,o),
(342,372,cs),
(310,372,o),
(274,368,o),
(239,359,c),
(183,373,o),
(153,415,o),
(153,458,cs),
(153,511,o),
(198,559,o),
(306,559,cs),
(352,559,o),
(424,550,o),
(480,525,c),
(508,590,l),
(443,618,o),
(373,633,o),
(299,632,cs)
);
}
);
width = 553;
}
);
note = sixguru;
unicode = 2668;
},
{
color = 4;
glyphname = sevenguru;
lastChange = "2024-08-15 12:16:26 +0000";
layers = (
{
.lastUpdate = 745416892.639;
layerId = master01;
shapes = (
{
closed = 1;
nodes = (
(60,-2,o),
(100,-9,o),
(148,-9,cs),
(380,-9,o),
(503,146,o),
(503,342,cs),
(503,514,o),
(408,632,o),
(258,632,cs),
(134,632,o),
(59,551,o),
(59,450,cs),
(59,356,o),
(123,281,o),
(247,281,cs),
(364,281,o),
(436,346,o),
(464,472,c),
(404,481,l),
(390,421,o),
(351,353,o),
(260,353,cs),
(201,353,o),
(139,382,o),
(139,452,cs),
(139,513,o),
(186,560,o),
(262,560,cs),
(368,560,o),
(421,470,o),
(421,347,cs),
(421,204,o),
(349,63,o),
(150,63,cs),
(106,63,o),
(66,70,o),
(48,74,c),
(43,3,l)
);
}
);
width = 558;
}
);
note = sevenguru;
unicode = 2669;
},
{
glyphname = eightguru;
lastChange = "2024-08-14 15:37:25 +0000";
layers = (
{
.lastUpdate = 745416042.965;
background = {
shapes = (
{
closed = 1;
nodes = (
(455,0,o),
(488,2,o),
(513,5,c),
(506,78,l),
(479,74,o),
(454,72,o),
(431,72,cs),
(247,72,o),
(190,133,o),
(190,314,cs),
(190,476,l),
(510,476,l),
(510,547,l),
(190,547,l),
(190,577,ls),
(190,613,o),
(175,632,o),
(147,632,cs),
(132,632,o),
(116,626,o),
(99,614,cs),
(64,590,o),
(36,547,o),
(36,514,cs),
(36,490,o),
(54,476,o),
(87,476,cs),
(110,476,l),
(110,297,ls),
(110,86,o),
(204,0,o),
(415,0,cs)
);
}
);
};
layerId = master01;
shapes = (
{
closed = 1;
nodes = (
(455,0,o),
(488,2,o),
(513,5,c),
(506,78,l),
(479,74,o),
(454,72,o),
(431,72,cs),
(247,72,o),
(190,133,o),
(190,314,cs),
(190,476,l),
(510,476,l),
(510,547,l),
(190,547,l),
(190,577,ls),
(190,613,o),
(175,632,o),
(147,632,cs),
(132,632,o),
(116,626,o),
(99,614,cs),
(64,590,o),
(36,547,o),
(36,514,cs),
(36,490,o),
(54,476,o),
(87,476,cs),
(110,476,l),
(110,297,ls),
(110,86,o),
(204,0,o),
(415,0,cs)
);
}
);
width = 551;
}
);
note = eightguru;
unicode = 2670;
},
{
glyphname = nineguru;
lastChange = "2024-08-14 15:37:15 +0000";
layers = (
{
.lastUpdate = 745416042.965;
background = {
shapes = (
{
closed = 1;
nodes = (
(455,0,o),
(488,2,o),
(513,5,c),
(506,78,l),
(479,74,o),
(454,72,o),
(431,72,cs),
(247,72,o),
(190,133,o),
(190,314,cs),
(190,476,l),
(510,476,l),
(510,547,l),
(478,547,l),
(448,576,o),
(433,610,o),
(433,647,cs),
(433,692,o),
(462,717,o),
(517,717,cs),
(534,717,o),
(549,716,o),
(562,714,c),
(572,783,l),
(552,786,o),
(531,787,o),
(510,787,cs),
(410,787,o),
(352,735,o),
(352,659,cs),
(352,619,o),
(364,582,o),
(389,547,c),
(190,547,l),
(190,577,ls),
(190,613,o),
(175,632,o),
(147,632,cs),
(98,632,o),
(36,564,o),
(36,514,cs),
(36,490,o),
(54,476,o),
(87,476,cs),
(110,476,l),
(110,297,ls),
(110,86,o),
(204,0,o),
(415,0,cs)
);
}
);
};
layerId = master01;
shapes = (
{
closed = 1;
nodes = (
(455,0,o),
(488,2,o),
(513,5,c),
(506,78,l),
(479,74,o),
(454,72,o),
(431,72,cs),
(247,72,o),
(190,133,o),
(190,314,cs),
(190,476,l),
(510,476,l),
(510,547,l),
(478,547,l),
(448,576,o),
(433,610,o),
(433,647,cs),
(433,692,o),
(462,717,o),
(517,717,cs),
(534,717,o),
(549,716,o),
(562,714,c),
(572,783,l),
(552,786,o),
(531,787,o),
(510,787,cs),
(410,787,o),
(352,735,o),
(352,659,cs),
(352,619,o),
(364,582,o),
(389,547,c),
(190,547,l),
(190,577,ls),
(190,613,o),
(175,632,o),
(147,632,cs),
(98,632,o),
(36,564,o),
(36,514,cs),
(36,490,o),
(54,476,o),
(87,476,cs),
(110,476,l),
(110,297,ls),
(110,86,o),
(204,0,o),
(415,0,cs)
);
}
);
width = 551;
}
);
note = nineguru;
unicode = 2671;
},
{
glyphname = u11280;
layers = (
{
.lastUpdate = 745416042.965;
layerId = master01;
shapes = (
{
closed = 1;
nodes = (
(163,0,l),
(191,222,ls),
(214,401,o),
(306,430,o),
(359,430,cs),
(407,430,o),
(472,408,o),
(472,283,cs),
(472,255,o),
(470,221,o),
(465,181,cs),
(442,0,l),
(528,0,l),
(572,339,ls),
(594,509,o),
(622,640,o),
(704,640,cs),
(713,640,o),
(722,639,o),
(731,637,c),
(745,714,l),
(735,719,o),
(723,720,o),
(711,720,cs),
(598,720,o),
(529,627,o),
(503,450,c),
(475,486,o),
(431,510,o),
(362,510,cs),
(284,510,o),
(219,479,o),
(183,424,c),
(171,477,o),
(128,520,o),
(69,536,c),
(50,456,l),
(86,441,o),
(115,409,o),
(115,351,cs),
(115,333,o),
(114,301,o),
(102,206,cs),
(77,0,l)
);
}
);
width = 715;
}
);
unicode = 70272;
},
{
glyphname = u11281;
layers = (
{
.lastUpdate = 745416042.965;
layerId = master01;
shapes = (
{
closed = 1;
nodes = (
(362,-25,o),
(433,71,o),
(433,179,cs),
(433,239,o),
(416,305,o),
(371,367,c),
(299,321,l),
(328,281,o),
(345,229,o),
(345,182,cs),
(345,119,o),
(314,55,o),
(241,55,cs),
(163,55,o),
(118,139,o),
(118,242,cs),
(118,412,o),
(226,641,o),
(446,641,cs),
(458,641,o),
(471,640,o),
(484,639,c),
(496,718,l),
(481,719,o),
(466,720,o),
(451,720,cs),
(172,720,o),
(30,463,o),
(30,240,cs),
(30,96,o),
(100,-25,o),
(246,-25,cs)
);
}
);
width = 476;
}
);
unicode = 70273;
},
{
glyphname = u11282;
layers = (
{
.lastUpdate = 745416042.965;
layerId = master01;
shapes = (
{
closed = 1;
nodes = (
(519,-15,o),
(613,60,o),
(613,155,cs),
(613,224,o),
(570,262,o),
(514,283,c),
(554,303,o),
(587,336,o),
(587,390,cs),
(587,459,o),
(527,519,o),
(410,519,cs),
(364,519,o),
(321,513,o),
(277,498,c),
(299,426,l),
(328,437,o),
(363,445,o),
(405,445,cs),
(476,445,o),
(499,409,o),
(499,384,cs),
(499,308,o),
(402,306,o),
(351,306,c),
(351,233,l),
(364,234,o),
(379,234,o),
(394,234,cs),
(450,234,o),
(525,225,o),
(525,162,cs),
(525,116,o),
(481,65,o),
(352,65,cs),
(187,65,o),
(118,185,o),
(118,311,cs),
(118,484,o),
(238,640,o),
(440,640,cs),
(472,640,o),
(495,638,o),
(506,637,c),
(523,714,l),
(503,718,o),
(471,720,o),
(442,720,cs),
(215,720,o),
(30,560,o),
(30,311,cs),
(30,126,o),
(143,-15,o),
(369,-15,cs)
);
}
);
width = 653;
}
);
unicode = 70274;
},
{
glyphname = u11283;
layers = (
{
.lastUpdate = 745416042.965;
layerId = master01;
shapes = (
{
closed = 1;
nodes = (
(690,245,o),
(697,289,o),
(697,333,cs),
(697,481,o),
(620,630,o),
(369,630,cs),
(127,630,o),
(40,479,o),
(40,318,cs),
(40,281,o),
(45,243,o),
(53,207,c),
(140,220,l),
(132,252,o),
(128,285,o),
(128,318,cs),
(128,439,o),
(189,550,o),
(369,550,cs),
(539,550,o),
(609,449,o),
(609,331,cs),
(609,295,o),
(604,257,o),
(592,220,c),
(679,205,l)
);
}
);
width = 737;
}
);
unicode = 70275;
},
{
glyphname = u11284;
layers = (
{
.lastUpdate = 745416042.965;
layerId = master01;
shapes = (
{
closed = 1;
nodes = (
(486,-15,l),
(498,65,l),
(472,65,ls),
(402,65,o),
(348,76,o),
(302,90,c),
(405,161,o),
(468,264,o),
(468,390,cs),
(468,508,o),
(400,630,o),
(201,630,cs),
(124,630,o),
(61,616,o),
(25,606,c),
(47,529,l),
(91,543,o),
(142,550,o),
(195,550,cs),
(342,550,o),
(380,475,o),
(380,385,cs),
(380,276,o),
(328,186,o),
(209,120,c),
(174,132,o),
(140,141,o),
(102,141,cs),
(48,141,o),
(20,106,o),
(20,71,cs),
(20,39,o),
(45,7,o),
(96,7,cs),
(137,7,o),
(186,24,o),
(210,38,c),
(269,12,o),
(379,-15,o),
(471,-15,cs)
);
}
);
width = 518;
}
);
unicode = 70276;
},
{
glyphname = u11285;
layers = (
{
.lastUpdate = 745416042.965;
layerId = master01;
shapes = (
{
closed = 1;
nodes = (
(389,-15,o),
(431,8,o),
(458,60,c),
(482,12,o),
(524,-15,o),
(584,-15,cs),
(596,-15,o),
(615,-14,o),
(626,-10,c),
(629,68,l),
(620,66,o),
(605,65,o),
(596,65,cs),
(523,65,o),
(498,137,o),
(498,194,cs),
(498,212,o),
(498,240,o),
(499,260,cs),
(511,538,l),
(575,535,l),
(581,614,l),
(250,630,l),
(244,553,l),
(421,543,l),
(411,271,ls),
(406,122,o),
(371,65,o),
(326,65,cs),
(270,65,o),
(162,161,o),
(70,279,c),
(0,229,l),
(134,57,o),
(250,-15,o),
(331,-15,cs)
);
}
);
width = 639;
}
);
unicode = 70277;
},
{
glyphname = u11286;
layers = (
{
.lastUpdate = 745416042.965;
layerId = master01;
shapes = (
{
closed = 1;
nodes = (
(556,63,l),
(544,66,ls),
(465,86,o),
(454,91,o),
(454,309,cs),
(454,408,ls),
(454,505,o),
(450,562,o),
(432,630,c),
(338,640,l),
(363,548,o),
(366,450,o),
(366,409,cs),
(366,254,ls),
(366,25,o),
(422,8,o),
(531,-15,c)
);
},
{
closed = 1;
nodes = (
(204,245,o),
(275,320,o),
(275,453,cs),
(275,533,o),
(216,616,o),
(82,640,c),
(56,563,l),
(142,552,o),
(187,504,o),
(187,448,cs),
(187,376,o),
(148,324,o),
(52,323,c),
(50,243,l)
);
}
);
width = 576;
}
);
unicode = 70278;
},
{
glyphname = u11288;
layers = (
{
.lastUpdate = 745416042.965;
layerId = master01;
shapes = (
{
closed = 1;
nodes = (
(749,63,l),
(737,66,ls),
(655,86,o),
(647,93,o),
(647,309,cs),
(647,385,ls),
(647,464,o),
(654,555,o),
(661,630,c),
(574,640,l),
(568,598,o),
(563,549,o),
(561,505,c),
(541,432,o),
(512,385,o),
(460,385,cs),
(411,385,o),
(386,422,o),
(386,501,cs),
(386,540,o),
(395,584,o),
(402,617,c),
(317,640,l),
(310,616,o),
(305,588,o),
(301,559,c),
(280,464,o),
(251,385,o),
(192,385,cs),
(143,385,o),
(118,422,o),
(118,501,cs),
(118,540,o),
(127,584,o),
(134,617,c),
(49,640,l),
(38,601,o),
(30,551,o),
(30,502,cs),
(30,342,o),
(116,305,o),
(190,305,cs),
(250,305,o),
(292,333,o),
(323,380,c),
(354,321,o),
(408,305,o),
(458,305,cs),
(500,305,o),
(533,319,o),
(559,345,c),
(559,254,ls),
(559,25,o),
(615,8,o),
(724,-15,c)
);
}
);
width = 769;
}
);
unicode = 70280;
},
{
glyphname = u1128A;
layers = (
{
.lastUpdate = 745416042.965;
layerId = master01;
shapes = (
{
closed = 1;
nodes = (
(310,-15,o),
(379,76,o),
(432,204,cs),
(510,392,ls),
(548,484,o),
(600,550,o),
(689,550,cs),
(737,550,o),
(783,543,o),
(829,531,c),
(851,609,l),
(794,622,o),
(741,630,o),
(684,630,cs),
(553,630,o),
(479,552,o),
(428,427,cs),
(361,264,ls),
(308,136,o),
(263,65,o),
(184,65,cs),
(133,65,o),
(108,100,o),
(108,145,cs),
(108,180,o),
(126,226,o),
(170,255,c),
(121,320,l),
(53,280,o),
(20,207,o),
(20,140,cs),
(20,62,o),
(69,-15,o),
(184,-15,cs)
);
}
);
width = 831;
}
);
unicode = 70282;
},
{
glyphname = u1128B;
layers = (
{
.lastUpdate = 745416042.965;
layerId = master01;
shapes = (
{
closed = 1;
nodes = (
(354,-15,o),
(438,31,o),
(438,143,cs),
(438,206,o),
(410,271,o),
(328,354,c),
(402,418,o),
(503,489,o),
(628,565,c),
(585,634,l),
(444,547,o),
(341,474,o),
(268,410,c),
(212,458,o),
(139,512,o),
(46,575,c),
(0,508,l),
(84,452,o),
(154,401,o),
(209,354,c),
(129,271,o),
(102,205,o),
(102,143,cs),
(102,30,o),
(188,-15,o),
(272,-15,cs)
);
},
{
closed = 1;
nodes = (
(229,65,o),
(190,91,o),
(190,147,cs),
(190,191,o),
(217,241,o),
(269,297,c),
(322,242,o),
(350,193,o),
(350,152,cs),
(350,92,o),
(311,65,o),
(270,65,cs)
);
},
{
closed = 1;
nodes = (
(208,611,o),
(269,661,o),
(340,712,c),
(288,774,l),
(216,720,o),
(157,669,o),
(100,616,c),
(156,562,l)
);
},
{
closed = 1;
nodes = (
(311,526,o),
(362,568,o),
(424,613,c),
(372,675,l),
(310,631,o),
(257,587,o),
(211,542,c),
(270,486,l)
);
}
);
width = 628;
}
);
unicode = 70283;
},
{
glyphname = u1128C;
layers = (
{
.lastUpdate = 745416042.965;
layerId = master01;
shapes = (
{
closed = 1;
nodes = (
(317,-15,o),
(430,45,o),
(430,188,cs),
(430,263,o),
(385,308,o),
(321,333,c),
(373,356,o),
(418,396,o),
(418,468,cs),
(418,484,o),
(416,499,o),
(411,514,c),
(427,515,o),
(430,515,o),
(434,515,cs),
(460,515,o),
(485,501,o),
(488,455,cs),
(501,254,ls),
(514,60,o),
(538,13,o),
(651,-11,cs),
(670,-15,l),
(695,63,l),
(672,69,ls),
(610,85,o),
(595,115,o),
(587,265,cs),
(578,440,ls),
(572,560,o),
(504,595,o),
(439,595,cs),
(410,595,o),
(383,594,o),
(355,590,c),
(320,615,o),
(269,630,o),
(203,630,cs),
(163,630,o),
(112,624,o),
(63,615,c),
(81,535,l),
(115,543,o),
(157,550,o),
(203,550,cs),
(303,550,o),
(330,505,o),
(330,463,cs),
(330,377,o),
(207,360,o),
(149,360,c),
(149,288,l),
(258,288,o),
(342,253,o),
(342,177,cs),
(342,98,o),
(267,65,o),
(191,65,cs),
(124,65,o),
(70,92,o),
(27,122,c),
(-20,55,l),
(42,8,o),
(118,-15,o),
(190,-15,cs)
);
}
);
width = 715;
}
);
unicode = 70284;
},
{
glyphname = u1128D;
layers = (
{
.lastUpdate = 745416042.965;
layerId = master01;
shapes = (
{
closed = 1;
nodes = (
(516,6,l),
(468,38,o),
(392,70,o),
(311,99,c),
(381,168,o),
(427,293,o),
(427,383,cs),
(427,415,o),
(422,447,o),
(413,477,c),
(468,446,o),
(509,391,o),
(524,371,cs),
(544,344,l),
(523,327,ls),
(481,293,o),
(433,239,o),
(433,179,cs),
(433,111,o),
(487,56,o),
(576,56,cs),
(676,56,o),
(730,113,o),
(730,190,cs),
(730,232,o),
(704,270,o),
(686,295,cs),
(658,333,l),
(781,433,o),
(882,503,o),
(948,542,c),
(905,609,l),
(803,553,o),
(694,466,o),
(607,394,c),
(568,440,ls),
(494,529,o),
(413,570,o),
(344,583,c),
(308,612,o),
(260,630,o),
(197,630,cs),
(128,630,o),
(61,605,o),
(20,579,c),
(47,506,l),
(68,519,o),
(122,550,o),
(187,550,cs),
(291,550,o),
(339,472,o),
(339,382,cs),
(339,249,o),
(274,169,o),
(236,134,c),
(212,145,o),
(182,153,o),
(151,153,cs),
(94,153,o),
(56,121,o),
(56,82,cs),
(56,50,o),
(81,16,o),
(150,16,cs),
(184,16,o),
(222,29,o),
(251,44,c),
(345,12,o),
(408,-18,o),
(473,-55,c)
);
},
{
closed = 1;
nodes = (
(533,136,o),
(521,163,o),
(521,183,cs),
(521,213,o),
(542,237,o),
(568,258,cs),
(595,280,l),
(608,264,ls),
(622,246,o),
(641,219,o),
(641,194,cs),
(641,167,o),
(621,136,o),
(580,136,cs)
);
}
);
width = 948;
}
);
unicode = 70285;
},
{
glyphname = u1128F;
layers = (
{
.lastUpdate = 745416042.965;
layerId = master01;
shapes = (
{
closed = 1;
nodes = (
(512,43,l),
(419,44,o),
(356,56,o),
(307,71,c),
(352,103,o),
(387,150,o),
(387,216,cs),
(387,284,o),
(341,327,o),
(276,353,c),
(327,375,o),
(370,413,o),
(370,483,cs),
(370,493,o),
(369,503,o),
(366,513,c),
(380,515,o),
(391,515,o),
(401,515,cs),
(429,515,o),
(454,501,o),
(457,455,cs),
(465,337,ls),
(478,143,o),
(502,96,o),
(615,72,cs),
(634,68,l),
(659,146,l),
(636,152,ls),
(574,168,o),
(558,198,o),
(551,348,cs),
(547,440,ls),
(542,560,o),
(473,595,o),
(399,595,cs),
(371,595,o),
(340,593,o),
(312,588,c),
(277,613,o),
(225,630,o),
(155,630,cs),
(119,630,o),
(74,625,o),
(30,618,c),
(42,537,l),
(74,544,o),
(113,550,o),
(155,550,cs),
(255,550,o),
(282,505,o),
(282,474,cs),
(282,398,o),
(180,383,o),
(105,379,c),
(105,309,l),
(232,309,o),
(299,276,o),
(299,207,cs),
(299,160,o),
(266,123,o),
(226,103,c),
(189,119,o),
(159,131,o),
(119,131,cs),
(69,131,o),
(32,103,o),
(32,68,cs),
(32,34,o),
(59,3,o),
(118,3,cs),
(155,3,o),
(196,15,o),
(218,27,c),
(270,-3,o),
(377,-25,o),
(506,-28,c)
);
}
);
width = 679;
}
);
unicode = 70287;
},
{
glyphname = u11290;
layers = (
{
.lastUpdate = 745416042.965;
layerId = master01;
shapes = (
{
closed = 1;
nodes = (
(411,-15,o),
(513,8,o),
(554,34,c),
(528,108,l),
(476,80,o),
(401,65,o),
(336,65,cs),
(219,65,o),
(118,132,o),
(118,261,cs),
(118,427,o),
(253,536,o),
(403,543,c),
(498,539,l),
(507,615,l),
(61,636,l),
(48,561,l),
(220,552,l),
(114,501,o),
(30,407,o),
(30,260,cs),
(30,113,o),
(127,-15,o),
(335,-15,cs)
);
}
);
width = 574;
}
);
unicode = 70288;
},
{
glyphname = u11291;
layers = (
{
.lastUpdate = 745416042.965;
layerId = master01;
shapes = (
{
closed = 1;
nodes = (
(425,-15,o),
(529,57,o),
(529,191,cs),
(529,262,o),
(486,341,o),
(383,341,cs),
(270,341,o),
(228,255,o),
(228,169,cs),
(228,133,o),
(233,101,o),
(243,72,c),
(160,94,o),
(118,168,o),
(118,271,cs),
(118,401,o),
(224,550,o),
(412,550,cs),
(434,550,o),
(456,549,o),
(480,545,c),
(495,621,l),
(465,627,o),
(436,630,o),
(407,630,cs),
(200,630,o),
(30,476,o),
(30,264,cs),
(30,118,o),
(111,-15,o),
(300,-15,cs)
);
},
{
closed = 1;
nodes = (
(323,97,o),
(317,132,o),
(317,165,cs),
(317,218,o),
(335,261,o),
(385,261,cs),
(424,261,o),
(441,224,o),
(441,186,cs),
(441,113,o),
(395,78,o),
(332,68,c)
);
}
);
width = 559;
}
);
unicode = 70289;
},
{
glyphname = u11292;
layers = (
{
.lastUpdate = 745416042.965;
layerId = master01;
shapes = (
{
closed = 1;
nodes = (
(390,-15,o),
(423,87,o),
(462,210,cs),
(523,404,ls),
(551,493,o),
(585,550,o),
(674,550,cs),
(723,550,o),
(767,545,o),
(816,534,c),
(828,612,l),
(767,625,o),
(716,630,o),
(673,630,cs),
(549,630,o),
(483,569,o),
(438,427,cs),
(384,255,ls),
(346,133,o),
(324,65,o),
(263,65,cs),
(220,65,o),
(153,122,o),
(68,234,c),
(0,180,l),
(107,41,o),
(174,-15,o),
(274,-15,cs)
);
}
);
width = 808;
}
);
unicode = 70290;
},
{
glyphname = u11293;
layers = (
{
.lastUpdate = 745416042.965;
layerId = master01;
shapes = (
{
closed = 1;
nodes = (
(486,8,o),
(641,106,o),
(641,300,cs),
(641,426,o),
(562,630,o),
(302,630,cs),
(162,630,o),
(69,566,o),
(20,509,c),
(73,446,l),
(143,521,o),
(218,550,o),
(304,550,cs),
(339,550,o),
(369,545,o),
(396,537,c),
(173,355,l),
(227,291,l),
(468,498,l),
(492,479,o),
(510,455,o),
(523,430,c),
(277,230,l),
(331,166,l),
(549,351,l),
(552,334,o),
(553,318,o),
(553,302,cs),
(553,182,o),
(480,94,o),
(393,48,c),
(445,-15,l)
);
}
);
width = 681;
}
);
unicode = 70291;
},
{
glyphname = u11294;
layers = (
{
.lastUpdate = 745416042.965;
layerId = master01;
shapes = (
{
closed = 1;
nodes = (
(609,-15,o),
(696,148,o),
(696,337,cs),
(696,446,o),
(647,540,o),
(526,540,cs),
(423,540,o),
(365,457,o),
(365,369,cs),
(365,260,o),
(445,179,o),
(562,146,c),
(528,96,o),
(472,65,o),
(385,65,cs),
(299,65,o),
(215,95,o),
(215,199,cs),
(215,219,o),
(220,253,o),
(227,288,cs),
(235,330,o),
(244,381,o),
(244,430,cs),
(244,574,o),
(161,630,o),
(15,630,cs),
(6,630,o),
(-3,630,o),
(-12,629,c),
(-20,549,l),
(83,548,o),
(156,535,o),
(156,421,cs),
(156,385,o),
(151,346,o),
(142,307,cs),
(133,267,o),
(127,227,o),
(127,191,cs),
(127,79,o),
(200,-15,o),
(380,-15,cs)
);
},
{
closed = 0;
nodes = (
(142,307,l)
);
},
{
closed = 1;
nodes = (
(496,249,o),
(454,312,o),
(454,369,cs),
(454,410,o),
(472,460,o),
(527,460,cs),
(593,460,o),
(608,379,o),
(608,337,cs),
(608,294,o),
(604,253,o),
(594,217,c)
);
}
);
width = 736;
}
);
unicode = 70292;
},
{
glyphname = u11295;
layers = (
{
.lastUpdate = 745416042.965;
layerId = master01;
shapes = (
{
closed = 1;
nodes = (
(733,57,l),
(721,60,ls),
(645,79,o),
(631,88,o),
(631,309,cs),
(631,408,ls),
(631,505,o),
(627,562,o),
(609,630,c),
(515,640,l),
(540,548,o),
(543,450,o),
(543,409,cs),
(543,254,ls),
(543,25,o),
(599,8,o),
(708,-15,c)
);
},
{
closed = 1;
nodes = (
(246,52,l),
(179,69,o),
(176,78,o),
(176,289,cs),
(176,308,ls),
(176,405,o),
(172,462,o),
(154,530,c),
(60,540,l),
(85,448,o),
(88,350,o),
(88,309,cs),
(88,234,ls),
(88,25,o),
(126,1,o),
(215,-19,c)
);
},
{
closed = 1;
nodes = (
(246,52,l),
(179,69,o),
(176,78,o),
(176,289,cs),
(176,308,ls),
(176,405,o),
(172,462,o),
(154,530,c),
(60,540,l),
(85,448,o),
(88,350,o),
(88,309,cs),
(88,234,ls),
(88,25,o),
(126,1,o),
(215,-19,c)
);
},
{
closed = 1;
nodes = (
(503,57,l),
(491,60,ls),
(415,79,o),
(401,88,o),
(401,309,cs),
(401,408,ls),
(401,505,o),
(397,562,o),
(379,630,c),
(285,640,l),
(310,548,o),
(313,450,o),
(313,409,cs),
(313,254,ls),
(313,25,o),
(369,8,o),
(478,-15,c)
);
}
);
width = 753;
}
);
unicode = 70293;
},
{
glyphname = u11296;
layers = (
{
.lastUpdate = 745416042.965;
layerId = master01;
shapes = (
{
closed = 1;
nodes = (
(380,-15,o),
(472,63,o),
(472,179,cs),
(472,266,o),
(423,310,o),
(357,333,c),
(407,357,o),
(450,398,o),
(450,468,cs),
(450,556,o),
(383,630,o),
(235,630,cs),
(180,630,o),
(103,621,o),
(40,600,c),
(63,523,l),
(100,536,o),
(162,550,o),
(235,550,cs),
(335,550,o),
(362,505,o),
(362,465,cs),
(362,361,o),
(209,357,o),
(141,357,c),
(141,279,l),
(155,280,o),
(180,280,o),
(193,280,cs),
(310,280,o),
(384,255,o),
(384,179,cs),
(384,106,o),
(318,65,o),
(220,65,cs),
(166,65,o),
(101,74,o),
(34,87,c),
(20,8,l),
(74,-4,o),
(148,-15,o),
(219,-15,cs)
);
}
);
width = 512;
}
);
unicode = 70294;
},
{
glyphname = u11297;
layers = (
{
.lastUpdate = 745416042.965;
layerId = master01;
shapes = (
{
closed = 1;
nodes = (
(453,1,o),
(513,56,o),
(513,134,cs),
(513,173,o),
(498,210,o),
(467,239,c),
(491,247,o),
(516,257,o),
(546,269,cs),
(672,321,l),
(641,396,l),
(505,340,ls),
(428,308,o),
(369,286,o),
(325,286,cs),
(278,286,o),
(244,303,o),
(244,346,cs),
(244,391,o),
(275,422,o),
(388,471,cs),
(584,556,l),
(553,630,l),
(352,544,ls),
(314,528,o),
(276,511,o),
(244,490,c),
(222,559,o),
(160,630,o),
(37,630,cs),
(25,630,o),
(12,630,o),
(-2,628,c),
(-10,550,l),
(20,550,o),
(60,549,o),
(81,544,cs),
(148,528,o),
(166,482,o),
(166,421,cs),
(166,413,o),
(166,406,o),
(165,398,c),
(159,382,o),
(156,364,o),
(156,341,cs),
(156,244,o),
(237,206,o),
(322,206,cs),
(337,206,o),
(353,207,o),
(369,210,c),
(407,192,o),
(425,161,o),
(425,133,cs),
(425,88,o),
(387,63,o),
(359,47,c),
(406,-19,l)
);
}
);
width = 702;
}
);
unicode = 70295;
},
{
glyphname = u11298;
layers = (
{
.lastUpdate = 745416042.965;
layerId = master01;
shapes = (
{
closed = 1;
nodes = (
(582,-15,o),
(642,25,o),
(686,94,c),
(618,134,l),
(598,104,o),
(564,65,o),
(509,65,cs),
(473,65,o),
(448,79,o),
(448,113,cs),
(448,138,o),
(467,167,o),
(490,201,cs),
(526,254,o),
(570,320,o),
(570,394,cs),
(570,478,o),
(498,518,o),
(432,518,cs),
(401,518,o),
(375,511,o),
(351,500,c),
(345,573,o),
(289,630,o),
(208,630,cs),
(118,630,o),
(46,566,o),
(10,500,c),
(68,447,l),
(94,487,o),
(149,550,o),
(200,550,cs),
(252,550,o),
(264,508,o),
(264,483,cs),
(264,432,o),
(232,397,o),
(181,344,c),
(236,292,l),
(261,312,o),
(287,338,o),
(309,366,cs),
(339,404,o),
(379,438,o),
(425,438,cs),
(457,438,o),
(483,421,o),
(483,383,cs),
(483,347,o),
(464,315,o),
(426,261,cs),
(394,215,o),
(361,168,o),
(361,109,cs),
(361,35,o),
(425,-15,o),
(509,-15,cs)
);
},
{
closed = 0;
nodes = (
(448,113,l)
);
}
);
width = 686;
}
);
unicode = 70296;
},
{
glyphname = u11299;
layers = (
{
.lastUpdate = 745416042.965;
layerId = master01;
shapes = (
{
closed = 1;
nodes = (
(519,49,l),
(483,73,o),
(479,124,o),
(479,260,cs),
(479,331,o),
(485,381,o),
(493,447,c),
(406,457,l),
(401,427,o),
(398,394,o),
(396,362,c),
(368,294,o),
(318,219,o),
(220,219,cs),
(149,219,o),
(128,279,o),
(128,345,cs),
(128,383,o),
(141,492,o),
(150,551,c),
(494,531,l),
(503,609,l),
(223,623,ls),
(193,625,o),
(117,630,o),
(109,630,cs),
(76,630,o),
(72,618,o),
(64,570,cs),
(56,524,o),
(40,397,o),
(40,344,cs),
(40,238,o),
(81,139,o),
(218,139,cs),
(293,139,o),
(349,173,o),
(391,217,c),
(392,61,o),
(421,0,o),
(487,-29,c)
);
}
);
width = 559;
}
);
unicode = 70297;
},
{
glyphname = u1129A;
layers = (
{
.lastUpdate = 745416042.965;
layerId = master01;
shapes = (
{
closed = 1;
nodes = (
(301,33,o),
(416,124,o),
(416,292,cs),
(416,461,o),
(306,596,o),
(15,630,c),
(0,547,l),
(126,537,o),
(203,503,o),
(264,451,c),
(41,259,l),
(92,199,l),
(310,386,l),
(324,355,o),
(328,323,o),
(328,294,cs),
(328,174,o),
(251,94,o),
(164,48,c),
(216,-15,l)
);
}
);
width = 456;
}
);
unicode = 70298;
},
{
glyphname = u1129B;
layers = (
{
.lastUpdate = 745416042.965;
layerId = master01;
shapes = (
{
closed = 1;
nodes = (
(571,63,l),
(559,66,ls),
(478,86,o),
(469,95,o),
(469,309,cs),
(469,408,ls),
(469,489,o),
(475,555,o),
(483,630,c),
(396,640,l),
(393,621,o),
(390,600,o),
(388,578,c),
(376,516,o),
(346,363,o),
(215,363,cs),
(147,363,o),
(118,409,o),
(118,489,cs),
(118,538,o),
(129,589,o),
(139,621,c),
(53,640,l),
(41,594,o),
(30,541,o),
(30,488,cs),
(30,361,o),
(91,283,o),
(208,283,cs),
(290,283,o),
(344,324,o),
(381,373,c),
(381,254,ls),
(381,25,o),
(437,8,o),
(546,-15,c)
);
}
);
width = 591;
}
);
unicode = 70299;
},
{
glyphname = u1129C;
layers = (
{
.lastUpdate = 745416042.965;
layerId = master01;
shapes = (
{
closed = 1;
nodes = (
(692,63,l),
(680,66,ls),
(602,86,o),
(590,89,o),
(590,309,cs),
(590,358,ls),
(590,434,o),
(596,505,o),
(604,580,c),
(517,590,l),
(509,536,o),
(505,470,o),
(503,420,c),
(484,343,o),
(451,223,o),
(331,223,cs),
(269,223,o),
(249,263,o),
(249,328,cs),
(249,352,o),
(251,381,o),
(253,410,cs),
(255,438,o),
(257,466,o),
(257,489,cs),
(257,565,o),
(207,630,o),
(126,630,cs),
(64,630,o),
(15,598,o),
(-20,556,c),
(40,500,l),
(61,528,o),
(87,550,o),
(118,550,cs),
(155,550,o),
(169,529,o),
(169,487,cs),
(169,472,o),
(168,449,o),
(165,419,cs),
(162,386,o),
(161,358,o),
(161,322,cs),
(161,227,o),
(202,143,o),
(329,143,cs),
(411,143,o),
(465,187,o),
(502,239,c),
(504,24,o),
(560,7,o),
(667,-15,c)
);
}
);
width = 712;
}
);
unicode = 70300;
},
{
glyphname = u1129D;
layers = (
{
.lastUpdate = 745416042.965;
layerId = master01;
shapes = (
{
closed = 1;
nodes = (
(759,63,l),
(747,66,ls),
(668,86,o),
(657,90,o),
(657,309,cs),
(657,372,ls),
(657,480,o),
(664,555,o),
(671,630,c),
(584,640,l),
(576,589,o),
(572,526,o),
(570,477,c),
(501,303,o),
(404,105,o),
(251,105,cs),
(205,105,o),
(179,138,o),
(179,178,cs),
(179,248,o),
(253,298,o),
(325,324,c),
(293,395,l),
(265,380,o),
(229,372,o),
(198,372,cs),
(146,372,o),
(118,390,o),
(118,426,cs),
(118,475,o),
(173,512,o),
(327,549,c),
(298,634,l),
(186,608,o),
(30,555,o),
(30,430,cs),
(30,343,o),
(86,305,o),
(150,295,c),
(107,252,o),
(91,208,o),
(91,162,cs),
(91,88,o),
(148,25,o),
(245,25,cs),
(402,25,o),
(510,154,o),
(569,295,c),
(569,254,ls),
(569,25,o),
(625,8,o),
(734,-15,c)
);
}
);
width = 779;
}
);
unicode = 70301;
},
{
glyphname = u1129F;
layers = (
{
.lastUpdate = 745416042.965;
layerId = master01;
shapes = (
{
closed = 1;
nodes = (
(305,-5,o),
(450,58,o),
(450,203,cs),
(450,298,o),
(391,351,o),
(320,374,c),
(358,402,o),
(388,442,o),
(388,500,cs),
(388,574,o),
(329,630,o),
(210,630,cs),
(153,630,o),
(85,617,o),
(20,591,c),
(48,516,l),
(95,537,o),
(158,550,o),
(205,550,cs),
(285,550,o),
(300,514,o),
(300,489,cs),
(300,442,o),
(270,413,o),
(232,394,c),
(221,395,o),
(209,396,o),
(199,396,cs),
(131,396,o),
(75,372,o),
(75,321,cs),
(75,288,o),
(99,265,o),
(141,265,cs),
(179,265,o),
(214,280,o),
(245,302,c),
(309,295,o),
(362,259,o),
(362,200,cs),
(362,100,o),
(216,69,o),
(138,66,c),
(150,-14,l)
);
}
);
width = 490;
}
);
unicode = 70303;
},
{
glyphname = u112A0;
layers = (
{
.lastUpdate = 745416042.965;
layerId = master01;
shapes = (
{
closed = 1;
nodes = (
(700,59,l),
(612,78,o),
(597,86,o),
(597,165,cs),
(597,188,o),
(598,211,o),
(602,247,cs),
(606,280,o),
(607,308,o),
(607,334,cs),
(607,471,o),
(538,549,o),
(406,549,cs),
(333,549,o),
(289,524,o),
(250,485,c),
(232,581,o),
(139,630,o),
(29,630,cs),
(16,630,o),
(4,630,o),
(-3,629,c),
(-10,551,l),
(118,551,o),
(174,519,o),
(174,431,cs),
(174,391,o),
(167,340,o),
(158,274,cs),
(135,101,l),
(222,101,l),
(243,266,ls),
(261,407,o),
(320,469,o),
(402,469,cs),
(450,469,o),
(519,454,o),
(519,329,cs),
(519,308,o),
(518,287,o),
(515,257,cs),
(511,221,o),
(509,193,o),
(509,159,cs),
(509,49,o),
(550,14,o),
(611,-5,cs),
(627,-10,o),
(656,-16,o),
(677,-19,c)
);
}
);
width = 720;
}
);
unicode = 70304;
},
{
glyphname = u112A1;
layers = (
{
.lastUpdate = 745416042.965;
layerId = master01;
shapes = (
{
closed = 1;
nodes = (
(647,63,l),
(635,66,ls),
(558,85,o),
(545,90,o),
(545,309,cs),
(545,367,ls),
(545,458,o),
(552,535,o),
(559,610,c),
(473,630,l),
(249,630,o),
(30,599,o),
(30,452,cs),
(30,400,o),
(65,364,o),
(110,343,c),
(73,317,o),
(47,281,o),
(47,218,cs),
(47,155,o),
(104,92,o),
(201,92,cs),
(308,92,o),
(394,146,o),
(457,221,c),
(463,23,o),
(518,7,o),
(622,-15,c)
);
},
{
closed = 1;
nodes = (
(161,172,o),
(135,197,o),
(135,231,cs),
(135,292,o),
(183,311,o),
(212,320,c),
(218,320,l),
(218,391,l),
(142,400,o),
(118,425,o),
(118,458,cs),
(118,516,o),
(248,550,o),
(464,554,c),
(458,487,o),
(457,419,o),
(457,389,cs),
(457,356,l),
(394,248,o),
(311,172,o),
(207,172,cs)
);
}
);
width = 667;
}
);
unicode = 70305;
},
{
glyphname = u112A2;
layers = (
{
.lastUpdate = 745416042.965;
layerId = master01;
shapes = (
{
closed = 1;
nodes = (
(354,-15,o),
(438,31,o),
(438,143,cs),
(438,206,o),
(410,271,o),
(328,354,c),
(402,418,o),
(503,489,o),
(628,565,c),
(585,634,l),
(444,547,o),
(341,474,o),
(268,410,c),
(212,458,o),
(139,512,o),
(46,575,c),
(0,508,l),
(84,452,o),
(154,401,o),
(209,354,c),
(129,271,o),
(102,205,o),
(102,143,cs),
(102,30,o),
(188,-15,o),
(272,-15,cs)
);
},
{
closed = 1;
nodes = (
(229,65,o),
(190,91,o),
(190,147,cs),
(190,191,o),
(217,241,o),
(269,297,c),
(322,242,o),
(350,193,o),
(350,152,cs),
(350,92,o),
(311,65,o),
(270,65,cs)
);
}
);
width = 628;
}
);
unicode = 70306;
},
{
glyphname = u112A3;
layers = (
{
.lastUpdate = 745416042.965;
layerId = master01;
shapes = (
{
closed = 1;
nodes = (
(407,8,o),
(562,106,o),
(562,300,cs),
(562,349,o),
(550,411,o),
(519,467,c),
(559,505,o),
(597,544,o),
(634,585,c),
(579,640,l),
(545,604,o),
(510,568,o),
(472,533,c),
(419,589,o),
(339,630,o),
(223,630,cs),
(127,630,o),
(53,600,o),
(0,562,c),
(49,495,l),
(103,534,o),
(161,550,o),
(225,550,cs),
(313,550,o),
(372,520,o),
(411,477,c),
(339,414,o),
(264,355,o),
(193,306,c),
(242,242,l),
(315,295,o),
(386,350,o),
(454,409,c),
(468,373,o),
(474,336,o),
(474,302,cs),
(474,182,o),
(401,94,o),
(314,48,c),
(366,-15,l)
);
}
);
width = 644;
}
);
unicode = 70307;
},
{
glyphname = u112A4;
layers = (
{
.lastUpdate = 745416042.965;
layerId = master01;
shapes = (
{
closed = 1;
nodes = (
(453,-15,o),
(579,32,o),
(644,115,c),
(585,171,l),
(536,107,o),
(432,64,o),
(341,64,cs),
(236,64,o),
(171,101,o),
(171,162,cs),
(171,200,o),
(193,244,o),
(279,275,c),
(311,277,o),
(348,281,o),
(384,288,c),
(369,367,l),
(336,360,o),
(297,355,o),
(259,355,cs),
(167,355,o),
(118,395,o),
(118,451,cs),
(118,509,o),
(176,550,o),
(269,550,cs),
(297,550,o),
(328,547,o),
(354,543,c),
(367,622,l),
(330,628,o),
(293,630,o),
(263,630,cs),
(105,630,o),
(30,540,o),
(30,453,cs),
(30,365,o),
(77,312,o),
(151,289,c),
(104,252,o),
(83,208,o),
(83,158,cs),
(83,44,o),
(195,-15,o),
(334,-15,cs)
);
}
);
width = 634;
}
);
unicode = 70308;
},
{
glyphname = u112A5;
layers = (
{
.lastUpdate = 745416042.965;
layerId = master01;
shapes = (
{
closed = 1;
nodes = (
(546,55,o),
(591,138,o),
(591,217,cs),
(591,298,o),
(525,359,o),
(439,368,c),
(519,456,o),
(594,543,o),
(637,599,c),
(578,651,l),
(532,593,o),
(454,504,o),
(372,415,c),
(371,502,o),
(306,571,o),
(202,571,cs),
(127,571,o),
(62,527,o),
(0,438,c),
(62,393,l),
(98,440,o),
(147,489,o),
(201,489,cs),
(274,489,o),
(290,431,o),
(290,403,cs),
(290,324,o),
(242,272,o),
(146,180,c),
(203,124,l),
(244,163,o),
(298,217,o),
(353,275,c),
(373,286,o),
(394,293,o),
(415,293,cs),
(488,293,o),
(504,235,o),
(504,207,cs),
(504,148,o),
(455,81,o),
(417,41,c),
(478,-15,l)
);
}
);
width = 667;
}
);
unicode = 70309;
},
{
glyphname = u112A6;
layers = (
{
.lastUpdate = 745416042.965;
layerId = master01;
shapes = (
{
closed = 1;
nodes = (
(360,-15,o),
(528,43,o),
(528,206,cs),
(528,329,o),
(438,372,o),
(344,372,cs),
(316,372,o),
(290,369,o),
(266,365,cs),
(246,362,o),
(224,359,o),
(208,359,cs),
(173,359,o),
(146,366,o),
(146,399,cs),
(146,453,o),
(263,509,o),
(415,554,c),
(388,630,l),
(170,566,o),
(58,501,o),
(58,390,cs),
(58,327,o),
(103,279,o),
(190,279,cs),
(219,279,o),
(250,283,o),
(277,287,cs),
(297,290,o),
(315,292,o),
(330,292,cs),
(408,292,o),
(440,258,o),
(440,201,cs),
(440,99,o),
(320,65,o),
(222,65,cs),
(147,65,o),
(93,74,o),
(28,97,c),
(0,18,l),
(58,-3,o),
(129,-15,o),
(200,-15,cs)
);
}
);
width = 568;
}
);
unicode = 70310;
},
{
glyphname = u112A7;
layers = (
{
.lastUpdate = 745416042.965;
layerId = master01;
shapes = (
{
closed = 1;
nodes = (
(815,-15,o),
(869,2,o),
(932,56,c),
(881,124,l),
(841,89,o),
(805,65,o),
(769,65,cs),
(704,65,o),
(663,141,o),
(619,282,cs),
(606,323,l),
(597,402,o),
(538,453,o),
(456,453,cs),
(431,453,o),
(409,448,o),
(389,437,c),
(391,451,o),
(391,462,o),
(391,473,cs),
(391,555,o),
(342,630,o),
(233,630,cs),
(147,630,o),
(66,566,o),
(0,468,c),
(62,418,l),
(94,466,o),
(166,550,o),
(230,550,cs),
(289,550,o),
(303,506,o),
(303,466,cs),
(303,393,o),
(250,332,o),
(212,288,c),
(271,230,l),
(317,287,o),
(387,373,o),
(449,373,cs),
(500,373,o),
(521,331,o),
(521,296,cs),
(521,214,o),
(433,124,o),
(371,62,c),
(436,2,l),
(499,62,o),
(541,114,o),
(568,160,c),
(607,59,o),
(663,-15,o),
(767,-15,cs)
);
}
);
width = 952;
}
);
unicode = 70311;
},
{
glyphname = u112A8;
layers = (
{
.lastUpdate = 745416042.965;
layerId = master01;
shapes = (
{
closed = 1;
nodes = (
(322,-15,o),
(435,45,o),
(435,188,cs),
(435,241,o),
(413,280,o),
(385,309,c),
(411,316,o),
(435,321,o),
(454,321,cs),
(500,321,o),
(522,305,o),
(525,266,cs),
(531,181,ls),
(537,102,o),
(545,64,o),
(590,30,c),
(649,85,l),
(631,104,o),
(613,139,o),
(611,185,cs),
(608,267,ls),
(604,366,o),
(545,401,o),
(465,401,cs),
(440,401,o),
(413,397,o),
(387,391,c),
(403,417,o),
(413,447,o),
(413,480,cs),
(413,556,o),
(356,630,o),
(208,630,cs),
(168,630,o),
(117,624,o),
(68,615,c),
(86,535,l),
(120,543,o),
(162,550,o),
(208,550,cs),
(308,550,o),
(325,505,o),
(325,463,cs),
(325,369,o),
(217,330,o),
(143,325,c),
(153,246,l),
(194,247,o),
(245,263,o),
(296,280,c),
(331,257,o),
(347,217,o),
(347,177,cs),
(347,98,o),
(272,65,o),
(196,65,cs),
(142,65,o),
(97,83,o),
(59,105,c),
(20,32,l),
(75,0,o),
(136,-15,o),
(195,-15,cs)
);
}
);
width = 669;
}
);
unicode = 70312;
},
{
glyphname = u112A9;
layers = (
{
.lastUpdate = 745416042.965;
layerId = master01;
shapes = (
{
closed = 1;
nodes = (
(216,358,o),
(256,400,o),
(256,453,cs),
(256,506,o),
(216,549,o),
(168,549,cs),
(120,549,o),
(80,506,o),
(80,453,cs),
(80,400,o),
(120,358,o),
(168,358,cs)
);
},
{
closed = 1;
nodes = (
(276,50,o),
(316,92,o),
(316,145,cs),
(316,198,o),
(276,241,o),
(228,241,cs),
(180,241,o),
(140,198,o),
(140,145,cs),
(140,92,o),
(180,50,o),
(228,50,cs)
);
}
);
width = 396;
}
);
unicode = 70313;
},
